<svg id="Calque_1" data-name="Calque 1" xmlns="http://www.w3.org/2000/svg" viewBox="0 0 77.41 53.38"><defs><style>.cls-1{fill:#004380;}</style></defs><path class="cls-1" d="M1.76,24.46c-.34-.07-.72-.58-1.19-.59l0,0,.88-1.3c.7-1,1.41-2,2.11-2.95a12.71,12.71,0,0,1,7.12-4.82,17.74,17.74,0,0,1,3-.35c-.18-4.46,1-8,4.09-9.23A7.27,7.27,0,0,1,21,4.6a9.23,9.23,0,0,1,3.17,1.12C25.13,3.2,26.4,1.37,29,.46a10.59,10.59,0,0,1,6.21,0c4.13,1.39,7.43,4.46,6,10.42a19.78,19.78,0,0,1-.77,2.86c1.38-.11,2.73-1,6.52-.22a8.41,8.41,0,0,1,.58-3.39,8.72,8.72,0,0,1,4.59-4.39c5.39-2,8.82,1,10,5.11a9.78,9.78,0,0,1,0,5,22.63,22.63,0,0,1,3.15-.54c4-.37,6.74,1,9.39,2.62a7.38,7.38,0,0,1,2.47,2.22,1.15,1.15,0,0,1-.3,1.19c-1-.76-1.72-1.22-2.62-1.81a12.56,12.56,0,0,0-3.12-1.34,21.9,21.9,0,0,0-9.7,0A10.38,10.38,0,0,0,59,19a9.34,9.34,0,0,0,.82-2.44c.57-2.76.72-5.84-1.63-7.82-1.2-1-3.43-.94-5-.34-2.55,1-3.57,2.46-4,5.92a12.17,12.17,0,0,0,.12,2.16A6.68,6.68,0,0,0,48.28,16c-.6-.11-1.18-.27-1.81-.35a11,11,0,0,0-3,0,28.46,28.46,0,0,0-4.09.9c-1.06.33-2.11.68-3.16,1,1.4-2.89,4.2-8.5,1.52-12-1.56-2-6.5-3.36-9.26-1.77-1.81,1-2.76,3.1-3.33,5.45a.49.49,0,0,1-.31-.25c-.43-.26-1.23-1.48-2.33-1.81-1.69-.76-2.91-.52-4.46.86-2.07,1.84-1.23,8,.26,9.55l-.05.07-.12,0c-7-2.3-13.06,2.88-15.7,6.57-.22.12-.23.17-.33.17l-.31,0"/><path class="cls-1" d="M22.92,42.87H17.5l-1.65-3.66h-9L5.32,42.87H0L8.13,24.38H14l9,18.49ZM11.12,28.8,8.16,36h6.21L11.12,28.8Z"/><path class="cls-1" d="M32.05,24.38c7.36,0,11.15,4.21,11.15,9.27,0,5.32-3.67,9.22-11.71,9.22H23.15V24.38Zm-3.87,15.1h3.28c5.06,0,6.57-3.14,6.57-5.85,0-3.17-1.87-5.86-6.63-5.86H28.18V39.48Z"/><polygon class="cls-1" points="59.76 42.87 44.88 42.87 44.88 24.38 59.55 24.38 59.55 27.77 49.91 27.77 49.91 31.65 59.11 31.65 59.11 35.04 49.91 35.04 49.91 39.48 59.76 39.48 59.76 42.87 59.76 42.87"/><path class="cls-1" d="M70.73,24.38c4.61,0,6.68,3,6.68,5.48s-2,5.58-6.65,5.58h-4v7.43h-5V24.38Zm-4,7.68H69.1c2.31,0,3.14-.76,3.14-2.15,0-1.57-1-2.14-3.7-2.14H66.77v4.29Z"/><path class="cls-1" d="M3,52.1l.43,1.28H4L2.59,49.3H2L.57,53.38h.55l.42-1.28Zm-1.34-.41.4-1.18c.08-.25.14-.5.2-.74h0c.06.23.12.48.21.74l.4,1.18Zm4,1.49a2.15,2.15,0,0,0,1,.26c1,0,1.42-.54,1.42-1.17s-.35-.93-1-1.2-.81-.41-.81-.79.22-.61.77-.61a1.71,1.71,0,0,1,.78.19L8,49.44a1.76,1.76,0,0,0-.9-.2,1.17,1.17,0,0,0-1.32,1.1c0,.58.41.92,1.08,1.16s.77.43.77.81-.32.69-.86.69a1.92,1.92,0,0,1-.94-.26l-.13.44Zm4.26,0a2.18,2.18,0,0,0,1,.26c1,0,1.43-.54,1.43-1.17s-.35-.93-1-1.2-.81-.41-.81-.79.21-.61.76-.61a1.68,1.68,0,0,1,.78.19l.14-.42a1.76,1.76,0,0,0-.9-.2A1.17,1.17,0,0,0,10,50.34c0,.58.41.92,1.07,1.16s.77.43.77.81S11.53,53,11,53a1.93,1.93,0,0,1-.95-.26l-.13.44Zm4.46-3.88v2.4c0,1.27.63,1.75,1.46,1.75s1.55-.52,1.55-1.77V49.3h-.54v2.42c0,.9-.38,1.3-1,1.3s-.95-.39-.95-1.3V49.3Zm5.2,4.08h.53V51.61h.49c.48,0,.7.23.82.8a4.93,4.93,0,0,0,.27,1h.54a6.86,6.86,0,0,1-.31-1.12,1,1,0,0,0-.6-.82v0a1.07,1.07,0,0,0,.77-1,1.05,1.05,0,0,0-.32-.78,1.72,1.72,0,0,0-1.18-.33,5.05,5.05,0,0,0-1,.09v4Zm.53-3.65a1.82,1.82,0,0,1,.52,0c.55,0,.93.23.93.76s-.35.77-.92.77h-.53V49.73ZM26.22,51H24.64V49.74h1.67V49.3H24.12v4.08h2.29v-.44H24.64V51.47h1.58V51Zm-.74-2.65-.56.7h.43l.77-.7Zm6.43,5h.51l-.25-4.08H31.5l-.73,2c-.18.52-.33,1-.43,1.38h0c-.1-.43-.24-.87-.41-1.38l-.69-2h-.67l-.29,4.08h.5l.11-1.75c0-.61.07-1.29.08-1.8h0c.12.48.28,1,.47,1.58l.66,1.94h.4l.72-2c.21-.57.38-1.07.52-1.55h0c0,.51,0,1.19.06,1.76l.11,1.79ZM36.62,51H35V49.74h1.67V49.3h-2.2v4.08H36.8v-.44H35V51.47h1.58V51Zm2.64,2.35V51.64c0-.68,0-1.17,0-1.68h0A14.39,14.39,0,0,0,40,51.31l1.3,2.07h.53V49.3h-.5V51c0,.63,0,1.13.06,1.67h0a10.51,10.51,0,0,0-.73-1.32L39.34,49.3h-.57v4.08Zm5.29,0h.54V49.75h1.24V49.3h-3v.45h1.23v3.63Zm6.08,0h.53V51.75a1.8,1.8,0,0,0,.42,0,1.69,1.69,0,0,0,1.24-.44,1.22,1.22,0,0,0,.32-.88,1.07,1.07,0,0,0-.36-.85,1.65,1.65,0,0,0-1.14-.34,6.33,6.33,0,0,0-1,.08v4Zm.53-3.65a2.46,2.46,0,0,1,.49,0c.58,0,1,.26,1,.8s-.38.87-1,.87a1.74,1.74,0,0,1-.43,0V49.73Zm4,3.65h.52V51.61h.5c.48,0,.69.23.82.8a4.93,4.93,0,0,0,.27,1h.54a6.86,6.86,0,0,1-.31-1.12,1,1,0,0,0-.6-.82v0a1.07,1.07,0,0,0,.77-1,1.05,1.05,0,0,0-.32-.78,1.73,1.73,0,0,0-1.18-.33,4.91,4.91,0,0,0-1,.09v4Zm.52-3.65a1.92,1.92,0,0,1,.52,0c.56,0,.94.23.94.76s-.36.77-.92.77h-.54V49.73Zm5.66-.49a1.93,1.93,0,0,0-1.89,2.14,1.87,1.87,0,0,0,1.83,2.07,1.91,1.91,0,0,0,1.89-2.15,1.85,1.85,0,0,0-1.83-2.06Zm0,.43c.87,0,1.3.84,1.3,1.65S62.12,53,61.28,53,60,52.24,60,51.37s.44-1.7,1.31-1.7Zm6.56,3.16A2.16,2.16,0,0,1,67,53a1.49,1.49,0,0,1-1.57-1.64A1.52,1.52,0,0,1,67,49.68a1.82,1.82,0,0,1,.82.17l.13-.43a2.24,2.24,0,0,0-1-.18,2,2,0,0,0-2.12,2.14,1.9,1.9,0,0,0,2,2.06A2.77,2.77,0,0,0,68,53.25l-.11-.42ZM69.9,49.3v4.08h.52V51.47h2v1.91h.53V49.3h-.53V51h-2V49.3ZM77.23,51H75.65V49.74h1.67V49.3h-2.2v4.08h2.29v-.44H75.65V51.47h1.58V51Z"/></svg>